<?xml version="1.0" encoding="iso-8859-1"?>
<!-- Generator: Adobe Illustrator 19.0.0, SVG Export Plug-In . SVG Version: 6.00 Build 0)  -->
<svg version="1.1" id="Capa_1" xmlns="http://www.w3.org/2000/svg" xmlns:xlink="http://www.w3.org/1999/xlink" x="0px" y="0px"
	 viewBox="0 0 480 480" style="enable-background:new 0 0 480 480;" xml:space="preserve">
<path style="fill:#BEE5BF;" d="M8,344c0,17.672,14.328,32,32,32h168h64h168c17.672,0,32-14.328,32-32v-16H8V344z"/>
<g>
	<path style="fill:#DFF3E3;" d="M440,8H40C22.328,8,8,22.328,8,40v288h464V40C472,22.328,457.672,8,440,8z M264,293.672
		c-0.008,0-0.016,0-0.024,0c-3.864,0.736-7.776,1.328-11.76,1.704C248.192,295.768,244.12,296,240,296c-2.704,0-5.344-0.24-8-0.4
		l0,0c-7.68-0.48-15.168-1.64-22.424-3.384c-1.216-0.296-2.432-0.6-3.64-0.936c-1.992-0.544-3.984-1.096-5.936-1.736v-0.168
		c-51.056-16.824-88-64.688-88-121.376c0-65.264,48.88-119.008,112-126.896C229.256,40.448,234.568,40,240,40
		c3.648,0,7.224,0.248,10.792,0.544c1.544,0.128,3.08,0.288,4.608,0.472c1.432,0.176,2.84,0.432,4.264,0.648
		c4.184,0.648,8.288,1.488,12.328,2.528H272c55.176,14.232,96,64.184,96,123.808C368,230.48,323.208,282.432,264,293.672z"/>
	<path style="fill:#DFF3E3;" d="M200,289.536c1.952,0.64,3.944,1.192,5.936,1.736c-2.016-0.552-3.968-1.256-5.936-1.904V289.536z"/>
	<polygon style="fill:#DFF3E3;" points="192,440 288,440 272,376 208,376 	"/>
</g>
<path style="fill:#BEE5BF;" d="M128,440c0,17.672,14.328,32,32,32h160c17.672,0,32-14.328,32-32h-64h-96H128z"/>
<path style="fill:#CE7DA5;" d="M272,44.192C272,44.192,271.992,44.192,272,44.192c-4.048-1.04-8.152-1.88-12.336-2.528
	c-1.424-0.216-2.824-0.48-4.264-0.648c-1.528-0.184-3.064-0.344-4.608-0.472C247.224,40.248,243.648,40,240,40
	c-5.432,0-10.744,0.448-16,1.104C160.88,48.992,112,102.736,112,168c0,56.688,36.944,104.552,88,121.368
	c1.976,0.648,3.928,1.352,5.936,1.904c1.208,0.336,2.416,0.64,3.64,0.936c7.256,1.752,14.744,2.912,22.424,3.392l0,0
	c2.656,0.16,5.296,0.4,8,0.4c4.12,0,8.192-0.232,12.216-0.616c3.984-0.376,7.896-0.976,11.76-1.704c0.008,0,0.016,0,0.024,0
	c59.208-11.248,104-63.2,104-125.68C368,108.376,327.176,58.424,272,44.192z M176,112c8.84,0,16,7.16,16,16s-7.16,16-16,16
	s-16-7.16-16-16S167.16,112,176,112z M160,208c-8.84,0-16-7.16-16-16s7.16-16,16-16s16,7.16,16,16S168.84,208,160,208z M224,96
	c-8.84,0-16-7.16-16-16s7.16-16,16-16s16,7.16,16,16S232.84,96,224,96z M304,224c-8.84,0-16-7.16-16-16s7.16-16,16-16s16,7.16,16,16
	S312.84,224,304,224z M320,160c-8.84,0-16-7.16-16-16s7.16-16,16-16s16,7.16,16,16S328.84,160,320,160z"/>
<g>
	<circle style="fill:#DFF3E3;" cx="176" cy="128" r="16"/>
	<circle style="fill:#DFF3E3;" cx="160" cy="192" r="16"/>
	<circle style="fill:#DFF3E3;" cx="320" cy="144" r="16"/>
	<circle style="fill:#DFF3E3;" cx="304" cy="208" r="16"/>
	<circle style="fill:#DFF3E3;" cx="224" cy="80" r="16"/>
</g>
<g>
	<path style="fill:#493657;" d="M440,0H40C17.944,0,0,17.944,0,40v304c0,22.056,17.944,40,40,40h157.752l-12,48H128
		c-4.416,0-8,3.584-8,8c0,22.056,17.944,40,40,40h160c22.056,0,40-17.944,40-40c0-4.416-3.584-8-8-8h-57.752l-12-48H440
		c22.056,0,40-17.944,40-40V40C480,17.944,462.056,0,440,0z M40,16h400c13.232,0,24,10.768,24,24v280H16V40
		C16,26.768,26.768,16,40,16z M320,464H160c-10.432,0-19.328-6.688-22.632-16H192h96h54.632C339.328,457.312,330.432,464,320,464z
		 M277.752,432h-75.504l12-48h51.504L277.752,432z M440,368H272h-64H40c-13.232,0-24-10.768-24-24v-8h448v8
		C464,357.232,453.232,368,440,368z"/>
	<path style="fill:#493657;" d="M197.312,297.032c0.064,0.024,0.12,0.072,0.184,0.096c0.128,0.04,0.256,0.072,0.376,0.112
		c1.76,0.576,3.56,1.064,5.352,1.568c1.64,0.456,3.296,0.888,4.96,1.28c7.456,1.8,15.136,2.96,23.016,3.464
		c0.096,0.008,0.192,0.024,0.296,0.024c0.168,0.008,0.336,0.016,0.496,0.016c0.008,0,0.008,0,0.016,0
		c2.664,0.16,5.296,0.408,7.992,0.408c4.224,0,8.512-0.224,12.84-0.648c3.856-0.36,7.64-0.96,11.392-1.64
		c0.424-0.08,0.84-0.104,1.264-0.184c0.016,0,0.032-0.016,0.056-0.024C328.36,289.512,376,234.256,376,168
		c0-63.184-43.376-116.288-101.872-131.488c-0.048-0.016-0.088-0.048-0.136-0.064c-0.264-0.072-0.536-0.112-0.8-0.184
		c-3.912-0.984-7.888-1.792-11.92-2.432c-1.736-0.28-3.464-0.576-5.192-0.792c-1.552-0.184-3.104-0.328-4.672-0.464
		C247.576,32.232,243.768,32,240,32c-74.992,0-136,61.008-136,136C104,228.072,143.192,279.08,197.312,297.032z M232,80
		c0,4.408-3.592,8-8,8s-8-3.592-8-8s3.592-8,8-8S232,75.592,232,80z M216,50.416v7.056c-9.288,3.312-16,12.112-16,22.528
		c0,13.232,10.768,24,24,24s24-10.768,24-24c0-10.416-6.712-19.216-16-22.528v-9.064c2.656-0.176,5.296-0.408,8-0.408
		c7.832,0,15.88,0.856,24,2.544V128c0,13.232,10.768,24,24,24h9.472c3.312,9.288,12.112,16,22.528,16c13.232,0,24-10.768,24-24
		s-10.768-24-24-24c-10.416,0-19.216,6.712-22.528,16H288c-4.408,0-8-3.592-8-8V55c46.528,16.528,80,60.872,80,113
		c0,55.072-37.344,101.48-88,115.536V224c0-4.408,3.592-8,8-8h1.472c3.312,9.288,12.112,16,22.528,16c13.232,0,24-10.768,24-24
		s-10.768-24-24-24c-10.416,0-19.216,6.712-22.528,16H280c-13.232,0-24,10.768-24,24v62.808c-0.504,0.064-0.992,0.168-1.496,0.232
		c-1.448,0.184-2.88,0.32-4.32,0.448C246.824,287.768,243.44,288,240,288V144c0-13.232-10.768-24-24-24h-17.472
		c-3.312-9.288-12.112-16-22.528-16c-13.232,0-24,10.768-24,24s10.768,24,24,24c10.416,0,19.216-6.712,22.528-16H216
		c4.408,0,8,3.592,8,8v142.8c-4.568-0.6-9.032-1.504-13.408-2.592c-0.864-0.216-1.728-0.432-2.592-0.664V208
		c0-13.232-10.768-24-24-24h-1.472c-3.312-9.288-12.112-16-22.528-16c-13.232,0-24,10.768-24,24s10.768,24,24,24
		c10.416,0,19.216-6.712,22.528-16H184c4.408,0,8,3.592,8,8v69.912c-42.328-18.56-72-60.808-72-109.912
		C120,110.048,161.296,61.568,216,50.416z M312,144c0-4.408,3.592-8,8-8s8,3.592,8,8s-3.592,8-8,8S312,148.408,312,144z M296,208
		c0-4.408,3.592-8,8-8s8,3.592,8,8s-3.592,8-8,8S296,212.408,296,208z M184,128c0,4.408-3.592,8-8,8s-8-3.592-8-8s3.592-8,8-8
		S184,123.592,184,128z M168,192c0,4.408-3.592,8-8,8s-8-3.592-8-8s3.592-8,8-8S168,187.592,168,192z"/>
</g>
<g>
</g>
<g>
</g>
<g>
</g>
<g>
</g>
<g>
</g>
<g>
</g>
<g>
</g>
<g>
</g>
<g>
</g>
<g>
</g>
<g>
</g>
<g>
</g>
<g>
</g>
<g>
</g>
<g>
</g>
</svg>
